<svg width="364" height="420" viewBox="0 0 364 420" fill="none" xmlns="http://www.w3.org/2000/svg">
<rect x="114.517" width="249.483" height="323.101" rx="16.3596" fill="white"/>
<rect x="118.607" y="4.08989" width="241.303" height="314.921" rx="12.2697" stroke="black" stroke-opacity="0.25" stroke-width="8.17978"/>
<rect x="147.236" y="110.427" width="126.787" height="8.17978" rx="4.08989" fill="black"/>
<rect x="147.236" y="134.966" width="169.73" height="8.17978" rx="4.08989" fill="black"/>
<rect x="147.236" y="159.506" width="153.371" height="8.17978" rx="4.08989" fill="black"/>
<rect x="147.236" y="184.045" width="184.045" height="8.17978" rx="4.08989" fill="black"/>
<rect x="147.236" y="208.584" width="118.607" height="8.17978" rx="4.08989" fill="black"/>
<rect x="147.236" y="233.124" width="153.371" height="8.17978" rx="4.08989" fill="black"/>
<rect x="147.236" y="257.663" width="175.865" height="8.17978" rx="4.08989" fill="black"/>
<rect x="147.236" y="282.202" width="151.326" height="8.17978" rx="4.08989" fill="black"/>
<g clip-path="url(#clip0_6_30)">
<path d="M217.442 34.4765H152.692C150.683 34.4765 149.055 36.0501 149.055 37.9912V72.4357C149.055 74.3769 150.683 75.9505 152.692 75.9505H217.442C219.451 75.9505 221.08 74.3769 221.08 72.4357V37.9912C221.08 36.0501 219.451 34.4765 217.442 34.4765Z" stroke="black" stroke-width="3.63764"/>
<path d="M158.149 67.1636V43.2633H165.424L172.699 52.0502L179.975 43.2633H187.25V67.1636H179.975V53.4561L172.699 62.243L165.424 53.4561V67.1636H158.149ZM203.619 67.1636L192.706 55.565H199.982V43.2633H207.257V55.565H214.532L203.619 67.1636Z" fill="black"/>
</g>
<mask id="mask0_6_30" style="mask-type:alpha" maskUnits="userSpaceOnUse" x="0" y="110" width="346" height="310">
<path d="M46.1825 179.649C46.1825 144.228 0 126.017 0 126.017C6.35394 121.72 12.746 118.805 19.1699 117.13C153.6 69.6597 370.784 276.75 266.846 353.95C277.38 366.862 307.784 396.359 345.127 411.058L343.406 415.936L342.148 419.5C307.983 407.184 271.633 375.304 259.218 358.726C105.261 439.793 46.1825 215.069 46.1825 179.649Z" fill="url(#paint0_linear_6_30)"/>
</mask>
<g mask="url(#mask0_6_30)">
<path d="M46.1825 179.649C46.1825 146.037 0 126.017 0 126.017C6.35394 121.72 12.746 118.805 19.1699 117.13C153.6 69.6597 370.784 276.75 266.846 353.95C276.996 366.391 305.595 394.231 341.074 409.394C343.322 410.354 344.483 412.884 343.669 415.189C343.579 415.444 343.469 415.685 343.342 415.912C342.275 417.807 339.969 418.711 337.884 417.867C305.006 404.564 271.117 374.615 259.218 358.726C105.261 439.793 46.1825 213.26 46.1825 179.649Z" fill="url(#paint1_linear_6_30)"/>
<path d="M0.49659 126.017C112.725 109.134 169.832 276.483 262.694 355.937" stroke="#94DF66" stroke-width="8.05"/>
</g>
<defs>
<linearGradient id="paint0_linear_6_30" x1="35.7542" y1="119.562" x2="249.783" y2="362.392" gradientUnits="userSpaceOnUse">
<stop stop-color="#5DB826"/>
<stop offset="1" stop-color="#A4F175"/>
</linearGradient>
<linearGradient id="paint1_linear_6_30" x1="35.7542" y1="119.562" x2="249.783" y2="362.392" gradientUnits="userSpaceOnUse">
<stop stop-color="#5DB826"/>
<stop offset="1" stop-color="#94DF66"/>
</linearGradient>
<clipPath id="clip0_6_30">
<rect width="75.6629" height="44.9888" fill="white" transform="translate(147.236 32.7191)"/>
</clipPath>
</defs>
</svg>
